HIERARCHY
ROOT Hips
{
 OFFSET 0.000000 0.000000 0.000000
 CHANNELS 6 Xposition Yposition Zposition Yrotation Xrotation Zrotation
 JOINT Chest
 {
  OFFSET 0.000000 9.585900 0.002600
  CHANNELS 3 Yrotation Xrotation Zrotation
  JOINT Chest2
  {
   OFFSET 0.000000 9.601200 -0.005300
   CHANNELS 3 Yrotation Xrotation Zrotation
   JOINT Chest3
   {
    OFFSET 0.000000 9.561800 0.000000
    CHANNELS 3 Yrotation Xrotation Zrotation
    JOINT Chest4
    {
     OFFSET 0.000000 9.552100 0.000000
     CHANNELS 3 Yrotation Xrotation Zrotation
     JOINT Neck
     {
      OFFSET 0.000000 14.453000 0.000000
      CHANNELS 3 Yrotation Xrotation Zrotation
      JOINT Head
      {
       OFFSET 0.000000 8.936500 -0.011300
       CHANNELS 3 Yrotation Xrotation Zrotation
       End Site
       {
        OFFSET 0.000000 17.073600 -0.006000
       }
      }
     }
     JOINT RightCollar
     {
      OFFSET -2.921100 9.558500 0.000000
      CHANNELS 3 Yrotation Xrotation Zrotation
      JOINT RightShoulder
      {
       OFFSET -13.519700 0.000000 0.000000
       CHANNELS 3 Yrotation Xrotation Zrotation
       JOINT RightElbow
       {
        OFFSET 0.000000 -29.696600 0.000000
        CHANNELS 3 Yrotation Xrotation Zrotation
        JOINT RightWrist
        {
         OFFSET 0.000000 -24.004700 0.000000
         CHANNELS 3 Yrotation Xrotation Zrotation
         End Site
         {
          OFFSET 0.000000 -17.728500 0.000000
         }
        }
       }
      }
     }
     JOINT LeftCollar
     {
      OFFSET 2.921100 9.558500 0.000000
      CHANNELS 3 Yrotation Xrotation Zrotation
      JOINT LeftShoulder
      {
       OFFSET 13.519700 0.000000 0.000000
       CHANNELS 3 Yrotation Xrotation Zrotation
       JOINT LeftElbow
       {
        OFFSET 0.000000 -29.696600 0.000000
        CHANNELS 3 Yrotation Xrotation Zrotation
        JOINT LeftWrist
        {
         OFFSET 0.000000 -24.004700 0.000000
         CHANNELS 3 Yrotation Xrotation Zrotation
         End Site
         {
          OFFSET 0.000000 -17.728500 0.000000
         }
        }
       }
      }
     }
    }
   }
  }
 }
 JOINT RightHip
 {
  OFFSET -7.771700 -0.012900 -0.001300
  CHANNELS 3 Yrotation Xrotation Zrotation
  JOINT RightKnee
  {
   OFFSET 0.000000 -40.869800 0.001200
   CHANNELS 3 Yrotation Xrotation Zrotation
   JOINT RightAnkle
   {
    OFFSET 0.000000 -39.717900 0.002100
    CHANNELS 3 Yrotation Xrotation Zrotation
    JOINT RightToe
    {
     OFFSET 0.000000 -4.965400 11.033500
     CHANNELS 3 Yrotation Xrotation Zrotation
     End Site
     {
      OFFSET 0.000000 -1.423100 5.872300
     }
    }
   }
  }
 }
 JOINT LeftHip
 {
  OFFSET 7.771700 -0.012900 -0.001300
  CHANNELS 3 Yrotation Xrotation Zrotation
  JOINT LeftKnee
  {
   OFFSET 0.000000 -40.869800 0.001200
   CHANNELS 3 Yrotation Xrotation Zrotation
   JOINT LeftAnkle
   {
    OFFSET 0.000000 -39.717900 0.002100
    CHANNELS 3 Yrotation Xrotation Zrotation
    JOINT LeftToe
    {
     OFFSET 0.000000 -4.965400 11.033500
     CHANNELS 3 Yrotation Xrotation Zrotation
     End Site
     {
      OFFSET 0.000000 -1.423100 5.872300
     }
    }
   }
  }
 }
}
MOTION
Frames: 16
Frame Time: 0.008333
-91.292084 44.086859 17.043936 175.080861 -19.439333 0.703701 0.435339 17.770029 3.562099 -0.005664 1.996968 0.464796 0.010980 3.281860 0.747623 0.419740 15.481062 3.643601 -0.869997 15.967962 -3.282471 -0.161784 -8.935708 -3.272801 8.749620 1.852064 -6.174169 -9.331259 -5.001908 -3.371138 -80.603605 -76.233950 100.632227 -8.902676 2.657498 -46.574214 -10.113249 -0.925174 -5.258829 12.468366 -2.562780 0.823772 96.242579 -67.138934 -126.954901 21.651445 11.626153 43.496424 6.208302 -72.963306 6.356166 -150.433424 68.788733 -149.226007 -11.116089 -24.206908 8.911263 0.211870 -0.778547 0.092649 3.050289 -55.735445 -3.204325 173.992797 58.447266 172.734007 -1.424295 -42.046235 1.323158 0.203780 0.376014 0.131274
-91.297252 44.083173 17.048903 175.087563 -19.447538 0.704971 0.431055 17.769008 3.552233 -0.001521 1.988558 0.457660 0.010983 3.283979 0.748800 0.419198 15.492332 3.654716 -0.871422 15.951304 -3.296901 -0.167631 -8.941585 -3.273301 8.753264 1.839557 -6.182125 -9.322266 -5.011934 -3.367722 -80.591946 -76.224301 100.598585 -8.896099 2.670105 -46.579500 -10.106596 -0.945308 -5.272457 12.459143 -2.563260 0.839234 96.147089 -67.105742 -126.901154 21.651050 11.661151 43.462748 6.213059 -72.956014 6.346625 -150.411082 68.789818 -149.211483 -11.123900 -24.217436 8.923420 0.205070 -0.780096 0.091956 3.129261 -55.732660 -3.228275 173.983869 58.446590 172.731922 -1.472915 -42.045451 1.379985 0.196672 0.373590 0.122200
-91.300443 44.079716 17.053650 175.081886 -19.460960 0.697292 0.446173 17.765745 3.552449 0.002217 1.980278 0.450282 0.009818 3.289574 0.751397 0.415886 15.499779 3.657908 -0.874587 15.938404 -3.307507 -0.172385 -8.959302 -3.283983 8.756407 1.834089 -6.179944 -9.320735 -5.004819 -3.356036 -80.670915 -76.236330 100.670734 -8.898116 2.691151 -46.581631 -10.089984 -0.970922 -5.285520 12.439144 -2.548070 0.864662 96.084626 -67.084936 -126.871897 21.647357 11.705137 43.406491 6.184766 -72.948511 6.392918 -150.343989 68.788998 -149.154610 -11.137406 -24.197357 8.933187 0.209343 -0.793530 0.097101 3.130686 -55.722962 -3.207505 173.981984 58.446041 172.721995 -1.466469 -42.059027 1.380078 0.174480 0.388653 0.125462
-91.297388 44.075777 17.060874 175.054172 -19.464964 0.656819 0.501140 17.735292 3.583395 -0.007414 2.004863 0.468301 0.013593 3.281176 0.744456 0.419292 15.499264 3.650471 -0.876361 15.947375 -3.291439 -0.176743 -8.969760 -3.292215 8.756790 1.829457 -6.164418 -9.316970 -5.006224 -3.349854 -80.728251 -76.254336 100.708403 -8.919684 2.718970 -46.578759 -10.090531 -0.966272 -5.273009 12.421110 -2.559225 0.868416 96.029309 -67.082725 -126.818977 21.646403 11.755026 43.316138 6.052131 -72.953566 6.569571 -150.249294 68.791735 -149.069499 -11.116525 -24.200237 8.937121 0.193708 -0.771867 0.092590 3.128515 -55.724749 -3.134353 173.988325 58.443417 172.746272 -1.451482 -42.060835 1.370968 0.162138 0.385289 0.124525
-91.296675 44.073074 17.065414 175.055726 -19.488137 0.620555 0.517656 17.737773 3.609595 -0.000604 1.985912 0.454324 0.005630 3.304702 0.762246 0.419646 15.508089 3.653860 -0.879091 15.938983 -3.300784 -0.182215 -8.973518 -3.289720 8.760818 1.820688 -6.167382 -9.307514 -5.040007 -3.359827 -80.662352 -76.258590 100.623215 -8.918655 2.741008 -46.559245 -10.083401 -0.987429 -5.274250 12.412273 -2.553266 0.881476 95.973324 -67.074582 -126.776715 21.640426 11.801447 43.222181 5.917029 -72.937610 6.715797 -150.159235 68.792004 -148.991801 -11.103231 -24.143523 8.930092 0.191292 -0.803364 0.099320 3.132053 -55.710711 -3.072374 174.013088 58.437169 172.780636 -1.496011 -42.066573 1.405224 0.169725 0.385778 0.133013
-91.300889 44.070428 17.070495 175.050311 -19.507850 0.615072 0.526118 17.751777 3.614673 0.001026 1.975207 0.447412 0.004416 3.315282 0.769084 0.420481 15.476756 3.631056 -0.884615 15.936326 -3.304688 -0.178962 -8.952733 -3.274217 8.770578 1.832914 -6.150595 -9.311074 -5.037780 -3.357524 -80.745744 -76.273868 100.698235 -8.883362 2.776993 -46.491551 -10.080239 -0.980453 -5.261270 12.428946 -2.557264 0.895756 95.891827 -67.014562 -126.768535 21.613674 11.862632 43.190530 5.892359 -72.921112 6.748175 -150.096278 68.796057 -148.939145 -11.090284 -24.102270 8.922970 0.187268 -0.814324 0.104408 3.133470 -55.694799 -3.049336 174.026383 58.438041 172.777181 -1.492231 -42.075376 1.421847 0.153102 0.392602 0.120507
-91.303412 44.067985 17.075917 175.052288 -19.528224 0.597347 0.532159 17.750084 3.619743 -0.001551 1.991606 0.457826 0.006136 3.300107 0.758963 0.421071 15.492419 3.641942 -0.885510 15.931761 -3.308546 -0.178034 -8.952811 -3.273868 8.778502 1.820752 -6.158075 -9.314571 -5.026320 -3.352352 -80.874368 -76.293203 100.828631 -8.892804 2.792980 -46.457784 -10.065393 -1.035526 -5.267814 12.429045 -2.513176 0.920707 95.866192 -66.978016 -126.789125 21.606218 11.898754 43.165810 5.824506 -72.904822 6.817711 -150.068490 68.802078 -148.919538 -11.075178 -24.065332 8.912295 0.193015 -0.820999 0.108302 3.136585 -55.681174 -3.010636 174.061061 58.438555 172.803300 -1.515001 -42.081910 1.457290 0.155434 0.391602 0.101450
-91.306485 44.065218 17.082762 175.074967 -19.540510 0.576776 0.520791 17.738457 3.619981 -0.002069 1.992475 0.457757 0.005571 3.281230 0.744990 0.420230 15.515683 3.655131 -0.879931 15.940510 -3.298603 -0.176242 -8.953236 -3.273039 8.790305 1.811698 -6.150974 -9.312163 -5.033159 -3.365846 -80.951652 -76.278736 100.903652 -8.898505 2.807087 -46.427815 -10.059563 -1.043448 -5.263836 12.430524 -2.492678 0.937571 95.874734 -66.935089 -126.846298 21.593611 11.919130 43.201745 5.751604 -72.896061 6.870666 -150.073328 68.808617 -148.929067 -11.067632 -24.041095 8.904184 0.195698 -0.829265 0.111075 3.138992 -55.681186 -2.947121 174.138663 58.442770 172.849287 -1.574007 -42.076886 1.519648 0.144155 0.393787 0.117555
-91.307101 44.064425 17.084400 175.094230 -19.587196 0.547703 0.511866 17.761735 3.631660 -0.001927 1.975143 0.446726 0.002211 3.299318 0.754952 0.416759 15.523343 3.653540 -0.873689 15.940971 -3.295301 -0.170386 -8.952650 -3.270876 8.805492 1.805947 -6.142961 -9.291161 -5.094677 -3.405194 -80.834631 -76.225161 100.774191 -8.896102 2.806579 -46.408892 -10.050675 -1.048018 -5.264496 12.447896 -2.489501 0.957166 95.850836 -66.888978 -126.891193 21.608224 11.948619 43.200249 5.635301 -72.852665 6.973486 -150.075597 68.809187 -148.934585 -11.066029 -24.020652 8.901119 0.210497 -0.837514 0.111670 3.100149 -55.643840 -2.878369 174.182221 58.440502 172.878049 -1.603006 -42.072764 1.544903 0.141515 0.390940 0.128070
-91.309547 44.062848 17.087967 175.099662 -19.620305 0.535858 0.509633 17.749955 3.617551 -0.003507 2.013535 0.467985 0.001605 3.281782 0.744948 0.407916 15.528098 3.649049 -0.862416 15.942674 -3.293147 -0.153819 -8.963404 -3.285703 8.821929 1.784694 -6.142629 -9.276675 -5.096754 -3.416736 -80.867905 -76.203675 100.817385 -8.906589 2.823138 -46.425221 -10.038713 -1.033764 -5.257801 12.468563 -2.520720 0.972843 95.764638 -66.851518 -126.861836 21.633344 11.951420 43.200486 5.563489 -72.823149 7.040030 -150.121046 68.816704 -148.986700 -11.080821 -24.017667 8.903980 0.221946 -0.818801 0.107889 3.084782 -55.618053 -2.844921 174.203975 58.438885 172.891454 -1.615529 -42.071348 1.547449 0.140212 0.391472 0.138548
-91.312740 44.061546 17.090248 175.109753 -19.660688 0.530118 0.500280 17.784017 3.616813 -0.004445 1.995924 0.457476 0.005300 3.279515 0.746766 0.396779 15.535306 3.644603 -0.852825 15.944638 -3.294727 -0.142681 -8.967933 -3.295572 8.832913 1.796661 -6.129223 -9.259538 -5.136473 -3.434546 -80.909036 -76.183701 100.868246 -8.917015 2.842949 -46.445083 -10.030975 -1.035004 -5.261952 12.466120 -2.521710 0.997034 95.731211 -66.839208 -126.832908 21.657552 11.912839 43.142812 5.511266 -72.783122 7.082517 -150.163978 68.817828 -149.030266 -11.122091 -24.046283 8.925264 0.227749 -0.774255 0.095189 3.074566 -55.584377 -2.822947 174.225292 58.437002 172.903264 -1.633838 -42.067639 1.557137 0.144143 0.389041 0.138336
-91.317629 44.060556 17.090942 175.141843 -19.709991 0.529864 0.470921 17.802337 3.596731 -0.004626 1.997148 0.457283 0.001081 3.281120 0.745705 0.392009 15.517309 3.627491 -0.840239 15.969851 -3.282802 -0.141635 -8.965586 -3.298398 8.836582 1.817603 -6.110292 -9.241893 -5.160139 -3.441989 -80.981770 -76.169892 100.959475 -8.903981 2.810712 -46.430244 -10.027757 -1.010152 -5.254628 12.457513 -2.516676 1.017737 95.868996 -66.783104 -127.023634 21.668013 11.915709 43.187926 5.455765 -72.733870 7.095559 -150.227291 68.811358 -149.087516 -11.164456 -24.082505 8.924281 0.254532 -0.751428 0.096589 3.065340 -55.543971 -2.802782 174.264093 58.437768 172.906357 -1.665763 -42.052107 1.617215 0.127924 0.381549 0.117480
-91.321962 44.059715 17.090587 175.169868 -19.766164 0.529254 0.441099 17.811764 3.569553 -0.003931 2.013707 0.464346 -0.002573 3.283451 0.744351 0.392858 15.533191 3.632547 -0.842165 15.949760 -3.301058 -0.134810 -8.950625 -3.293620 8.837125 1.782454 -6.131866 -9.221433 -5.153879 -3.441192 -81.384805 -76.184039 101.410473 -8.927997 2.862848 -46.482224 -10.033493 -1.053863 -5.256509 12.466392 -2.469778 1.037629 95.998801 -66.752705 -127.190157 21.665033 11.912943 43.210221 5.384280 -72.679594 7.128970 -150.267661 68.810043 -149.132414 -11.213324 -24.053884 8.923752 0.302512 -0.784398 0.108036 3.059880 -55.497083 -2.795698 174.297689 58.432458 172.933800 -1.728268 -42.054624 1.640783 0.163718 0.388423 0.134420
-91.321225 44.058808 17.090203 175.183758 -19.825555 0.503273 0.432478 17.855762 3.584784 -0.004704 1.985022 0.451897 -0.000768 3.299303 0.752549 0.392087 15.549289 3.635145 -0.839409 15.951253 -3.301761 -0.131321 -8.947516 -3.294958 8.841100 1.769107 -6.140345 -9.212514 -5.148042 -3.438518 -81.614985 -76.203037 101.664588 -8.919910 2.876739 -46.485653 -10.029770 -1.075837 -5.251305 12.449694 -2.461403 1.046618 96.092006 -66.738419 -127.279509 21.651613 11.917514 43.203048 5.219156 -72.624779 7.276215 -150.295759 68.806244 -149.162707 -11.242428 -24.066047 8.919769 0.319498 -0.789062 0.112039 3.030112 -55.449394 -2.739022 174.333393 58.424813 172.967216 -1.753901 -42.037573 1.650432 0.178747 0.378090 0.124157
-91.324302 44.055944 17.094712 175.190462 -19.853184 0.499009 0.426876 17.852879 3.576720 -0.005793 2.000779 0.457211 -0.001517 3.285928 0.747653 0.388993 15.554522 3.634983 -0.835561 15.956443 -3.306111 -0.127909 -8.935758 -3.291353 8.845583 1.778088 -6.136892 -9.203532 -5.153968 -3.443077 -81.873532 -76.232309 101.945686 -8.911205 2.892374 -46.482452 -10.022848 -1.079837 -5.246575 12.430492 -2.457684 1.052326 96.125988 -66.736510 -127.297836 21.616716 11.912913 43.162126 5.114074 -72.598588 7.356217 -150.303260 68.807595 -149.182283 -11.246475 -24.087190 8.913154 0.335726 -0.786112 0.114368 3.070188 -55.438134 -2.717207 174.380686 58.416972 172.999899 -1.796948 -42.002957 1.686519 0.165867 0.354918 0.139761
-91.326729 44.052682 17.100298 175.189654 -19.876189 0.491057 0.428289 17.843589 3.574110 -0.005762 1.974363 0.447441 -0.001499 3.316885 0.758294 0.388519 15.554352 3.636383 -0.831554 15.963132 -3.312788 -0.122289 -8.928440 -3.299418 8.847649 1.790486 -6.133839 -9.167261 -5.210329 -3.472394 -81.975438 -76.238558 102.040404 -8.900456 2.909356 -46.470035 -10.019726 -1.060649 -5.243505 12.421362 -2.516487 1.050870 96.164798 -66.741755 -127.327171 21.625311 11.948352 43.162755 5.021988 -72.578807 7.432041 -150.303438 68.810580 -149.194335 -11.225606 -24.096423 8.906637 0.305542 -0.797284 0.110759 3.099795 -55.427243 -2.704515 174.399333 58.411503 173.024151 -1.833720 -41.988431 1.709441 0.175083 0.351737 0.142996
